<svg id="Layer_1" data-name="Layer 1" xmlns="http://www.w3.org/2000/svg" viewBox="0 0 907.881 204.991"><defs><style>.cls-1{fill:gray;}.cls-2{fill:#4b4b4b;}.cls-3{fill:tomato;}.cls-4{fill:#4169e1;}.cls-5{fill:#fafad2;}.cls-6{fill:#ff7518;}.cls-7{fill:#212121;}.cls-8{fill:orange;opacity:0.5;}.cls-9{fill:none;stroke:#212121;stroke-linecap:round;stroke-linejoin:round;stroke-width:3px;}</style></defs><title>expanded-logo</title><g id="grid"><rect class="cls-1" x="823.565" y="104.573" width="84.316" height="84.316" rx="3"/><rect class="cls-2" x="735.033" y="16.042" width="84.316" height="84.316" rx="3"/><rect class="cls-3" x="735.033" y="104.634" width="84.316" height="84.316" rx="3"/><rect class="cls-4" x="823.565" y="16.042" width="84.316" height="84.316" rx="3"/></g><g id="pumpkin"><path id="mouth" class="cls-5" d="M174.471,253.818c-1.721,11.553-8.789,21.933-19.507,28.67l-.009-.069-.5-3.373a4.635,4.635,0,0,0-4.694-3.982,2.275,2.275,0,0,0-.252.009c-.113.009-.226.017-.339.035l-18.438,2.677a4.646,4.646,0,0,0-3.938,5.277l1.052,7.18h-.122c-.469,0-.939-.017-1.408-.034a50.183,50.183,0,0,1-10.484-1.522l2.365-4.407a4.645,4.645,0,0,0-1.895-6.3l-16.413-8.832a4.433,4.433,0,0,0-2.043-.547,3.03,3.03,0,0,0-.495,0,4.868,4.868,0,0,0-1,.182,4.7,4.7,0,0,0-2.773,2.252l-1.739,3.234c-.026-.027-.052-.061-.078-.087a39.358,39.358,0,0,1-9.588-20.36Z" transform="translate(-25.824 -113.208)"/><path id="face" class="cls-6" d="M156.281,150.475a67.079,67.079,0,0,0-9.711.8,41.833,41.833,0,0,0-41.544-38.067,4.663,4.663,0,0,0-4.659,4.651V136.5a4.665,4.665,0,0,0,4.659,4.659,13.972,13.972,0,0,1,13.787,12.023,66.117,66.117,0,0,0-18.446-2.7c-41.1,0-74.543,37.624-74.543,83.862S59.266,318.2,100.367,318.2h55.914c41.1,0,74.543-37.623,74.543-83.862S197.381,150.475,156.281,150.475ZM78.66,199.452a9.815,9.815,0,1,1,9.815,9.814A9.817,9.817,0,0,1,78.66,199.452Zm76.464,83.036-.008-.069a.714.714,0,0,0-.113.069l-.5-3.442a4.634,4.634,0,0,0-1.826-3.069,4.7,4.7,0,0,0-2.747-.913,2.275,2.275,0,0,0-.252.009c-.113.009-.226.017-.339.035L130.9,277.785a4.646,4.646,0,0,0-3.938,5.277l1.052,7.18h-.122c-.469,0-.939-.017-1.408-.034a50.124,50.124,0,0,1-10.606-1.522l2.365-4.407a4.645,4.645,0,0,0-1.895-6.3l-16.413-8.832a4.527,4.527,0,0,0-1.921-.547,3.042,3.042,0,0,0-.5,0,4.847,4.847,0,0,0-1,.182,4.7,4.7,0,0,0-2.773,2.252L92,274.265c-.026-.027-.052-.061-.078-.087l-.044.087a39.419,39.419,0,0,1-9.666-20.447h92.416C172.91,265.371,165.843,275.751,155.124,282.488Zm17.882-73.222a9.819,9.819,0,1,1,9.814-9.814A9.817,9.817,0,0,1,173.006,209.266Z" transform="translate(-25.824 -113.208)"/><g id="eyes"><path class="cls-7" d="M98.289,199.452a9.815,9.815,0,1,1-9.814-9.823A9.809,9.809,0,0,1,98.289,199.452Z" transform="translate(-25.824 -113.208)"/><path class="cls-7" d="M182.82,199.452a9.819,9.819,0,1,1-9.814-9.823A9.814,9.814,0,0,1,182.82,199.452Z" transform="translate(-25.824 -113.208)"/></g><g id="specs"><path class="cls-8" d="M55.18,176.728a15.647,15.647,0,0,1,4.835-.948c3.751-.235,7.386-.771,11.118-1.156,9.948-1.028,20.1-1.725,30.085-.789a38.893,38.893,0,0,1,11.548,2.492c5.531,2.345,8.148,8.213,8.244,13.986a43.971,43.971,0,0,1-2.576,13.845c-1.778,5.373-4.905,10.365-10.035,13.015-4.664,2.41-10.076,3.2-15.253,3.534-2.76.177-5.529.2-8.293.129-11.994-.83-23.239-1.078-28.933-9.714-2.243-3.4-2.977-7.041-3.937-10.907-1.287-5.18-2.72-10.813-1.983-16.2a9.443,9.443,0,0,1,2.983-5.994A8.011,8.011,0,0,1,55.18,176.728Z" transform="translate(-25.824 -113.208)"/><path class="cls-8" d="M197.388,170a15.635,15.635,0,0,0-4.9-.487c-3.757.12-7.426-.07-11.178-.1-10-.083-20.174.181-30.024,2.055a38.919,38.919,0,0,0-11.262,3.572c-5.285,2.856-7.336,8.945-6.886,14.7a43.986,43.986,0,0,0,3.871,13.54c2.277,5.182,5.862,9.856,11.219,12.01,4.87,1.959,10.333,2.236,15.519,2.078,2.764-.084,5.523-.323,8.268-.654,10.217-1.687,22.4-2.076,27.886-12.4,1.912-3.6,2.3-7.292,2.89-11.23.793-5.279,1.687-11.022.445-16.311a9.44,9.44,0,0,0-3.536-5.686A8,8,0,0,0,197.388,170Z" transform="translate(-25.824 -113.208)"/><line class="cls-9" x1="95.002" y1="75.198" x2="107.212" y2="74.62"/><line class="cls-9" x1="94.89" y1="81.586" x2="107.747" y2="79.65"/><path class="cls-9" d="M52.392,201.882c1.84,10.724.532,23.845-1.188,34.471-2.069,12.78-9.5,30.013-13.525,34.445-3.609,4.382-7.528-3.972-7.912-8.663" transform="translate(-25.824 -113.208)"/><path class="cls-9" d="M202.789,193.081c.389,9.815,1.007,19.836,4.231,29.112,10.08,29,21.856,29.89,23.376,21.178" transform="translate(-25.824 -113.208)"/><path class="cls-9" d="M50.364,182.3a17.753,17.753,0,0,0-3.472-.094,6.994,6.994,0,0,0-2.946.513,3.982,3.982,0,0,0-1.685,3.029,3.8,3.8,0,0,0,2.4,3.346,8.743,8.743,0,0,0,5.22.28" transform="translate(-25.824 -113.208)"/><path class="cls-9" d="M202.71,175.089a17.848,17.848,0,0,1,3.446-.421,6.99,6.99,0,0,1,2.983.233,3.985,3.985,0,0,1,1.963,2.856,3.8,3.8,0,0,1-2.07,3.557,8.733,8.733,0,0,1-5.17.772" transform="translate(-25.824 -113.208)"/><path class="cls-9" d="M55.18,176.728a15.647,15.647,0,0,1,4.835-.948c3.751-.235,7.386-.771,11.118-1.156,9.948-1.028,20.1-1.725,30.085-.789a38.893,38.893,0,0,1,11.548,2.492c5.531,2.345,8.148,8.213,8.244,13.986a43.971,43.971,0,0,1-2.576,13.845c-1.778,5.373-4.905,10.365-10.035,13.015-4.664,2.41-10.076,3.2-15.253,3.534-2.76.177-5.529.2-8.293.129-11.994-.83-23.239-1.078-28.933-9.714-2.243-3.4-2.977-7.041-3.937-10.907-1.287-5.18-2.72-10.813-1.983-16.2a9.443,9.443,0,0,1,2.983-5.994A8.011,8.011,0,0,1,55.18,176.728Z" transform="translate(-25.824 -113.208)"/><path class="cls-9" d="M197.388,170a15.635,15.635,0,0,0-4.9-.487c-3.757.12-7.426-.07-11.178-.1-10-.083-20.174.181-30.024,2.055a38.919,38.919,0,0,0-11.262,3.572c-5.285,2.856-7.336,8.945-6.886,14.7a43.986,43.986,0,0,0,3.871,13.54c2.277,5.182,5.862,9.856,11.219,12.01,4.87,1.959,10.333,2.236,15.519,2.078,2.764-.084,5.523-.323,8.268-.654,10.217-1.687,22.4-2.076,27.886-12.4,1.912-3.6,2.3-7.292,2.89-11.23.793-5.279,1.687-11.022.445-16.311a9.44,9.44,0,0,0-3.536-5.686A8,8,0,0,0,197.388,170Z" transform="translate(-25.824 -113.208)"/></g></g><path class="cls-1" d="M293.525,247.1a22.551,22.551,0,0,1-10.4-3.7l-1.1,12.8a10.837,10.837,0,0,1-3.35,7.25,8.938,8.938,0,0,1-7.25,2.351,8.724,8.724,0,0,1-6.65-3.55,10.837,10.837,0,0,1-2.05-7.75l5.2-59.3a10.83,10.83,0,0,1,3.35-7.25,9.231,9.231,0,0,1,7.25-2.449,9.012,9.012,0,0,1,7.5,4.6,18.976,18.976,0,0,1,13.3-3.3,22.75,22.75,0,0,1,17.6,10.2q5.5,8.1,5.5,19.4a32.766,32.766,0,0,1-7.8,21.9Q306.125,248.2,293.525,247.1Zm1.9-42.4a7.454,7.454,0,0,0-6.75,2.7,13.93,13.93,0,0,0-3.05,8.2,15.454,15.454,0,0,0,1.55,9,7.4,7.4,0,0,0,12.65,1.2,15.038,15.038,0,0,0,3.2-8.2,15.293,15.293,0,0,0-1.7-8.8A7.189,7.189,0,0,0,295.425,204.7Z" transform="translate(-25.824 -113.208)"/><path class="cls-1" d="M380.724,259.4a10.725,10.725,0,0,1-3.2.5q-6.9,0-9.4-7.3l-4.2-12.1a22.245,22.245,0,0,1-17.1,7.4,25.192,25.192,0,0,1-16.4-6.2,31.644,31.644,0,0,1-10.1-14.6,38.6,38.6,0,0,1-2.2-12.8,28.638,28.638,0,0,1,3.8-14.9,23.114,23.114,0,0,1,12.6-10,22.022,22.022,0,0,1,7.2-1.2,16.436,16.436,0,0,1,6.6,1.3,10.262,10.262,0,0,1,9.4-6.9q6.8,0,9.4,7.3l19.4,56.4a12.049,12.049,0,0,1,.7,4Q387.224,257.2,380.724,259.4Zm-38-53.6q-5.2,1.8-5.2,8.9a16.266,16.266,0,0,0,1,5.5,14.969,14.969,0,0,0,4,6.4,8.409,8.409,0,0,0,5.8,2.5,6.649,6.649,0,0,0,2.3-.4q5.3-1.8,5.3-8.7a17.912,17.912,0,0,0-1.1-6q-2.9-8.6-9.5-8.6A8.817,8.817,0,0,0,342.724,205.8Z" transform="translate(-25.824 -113.208)"/><path class="cls-1" d="M409.123,247a46.719,46.719,0,0,1-16.6-2.9q-10.2-3.8-10.2-10.8a9.785,9.785,0,0,1,2.55-6.75,8.5,8.5,0,0,1,6.65-2.851,27.219,27.219,0,0,1,8.35,1.951,27.329,27.329,0,0,0,8.45,1.949q7.7,0,7.7-6.1,0-3-8.7-5.5-11.7-3.3-16-6.1-8.7-5.6-8.7-16.3a23.188,23.188,0,0,1,8.3-18.5,28.166,28.166,0,0,1,19-6.7,35.288,35.288,0,0,1,13.5,2.8q8.6,3.7,8.6,9.7a10.471,10.471,0,0,1-2.5,6.9,8.275,8.275,0,0,1-6.7,3,21.955,21.955,0,0,1-6.6-1.5,22.049,22.049,0,0,0-6.7-1.5q-5.7,0-5.7,4,0,2.1,8.7,4.6,11,3.1,16,6.8,8.7,6.4,8.7,18.1a23.753,23.753,0,0,1-8.5,18.9Q420.72,247,409.123,247Z" transform="translate(-25.824 -113.208)"/><path class="cls-1" d="M464.023,247q-12.2.6-19.55-5.35t-7.85-16.75l-1.4-26a10.95,10.95,0,0,1,2.35-7.65,8.93,8.93,0,0,1,6.85-3.35,9.086,9.086,0,0,1,7.1,2.65,10.554,10.554,0,0,1,3.1,7.35l1.3,25.6a6.568,6.568,0,0,0,2.25,4.9,7.222,7.222,0,0,0,9.65-.5,6.3,6.3,0,0,0,1.7-5.1l-1.3-25.6a10.584,10.584,0,0,1,2.25-7.649,8.931,8.931,0,0,1,6.85-3.351,9.15,9.15,0,0,1,7.15,2.6,10.594,10.594,0,0,1,3.05,7.4l1.4,25.9q.6,10.9-6.05,17.551T464.023,247Z" transform="translate(-25.824 -113.208)"/><path class="cls-1" d="M533.522,247.9q-5.3-.5-7.6-4.6a18.486,18.486,0,0,1-12.8,3.4,23.593,23.593,0,0,1-17.5-9.9,30.778,30.778,0,0,1-6.2-19.1,34.872,34.872,0,0,1,6.8-21.3q7.5-10.2,19.3-10.2a24.042,24.042,0,0,1,13.3,3.8l1.3-14.8a10.829,10.829,0,0,1,3.349-7.25,8.942,8.942,0,0,1,7.25-2.35,8.73,8.73,0,0,1,6.651,3.551,10.836,10.836,0,0,1,2.05,7.75l-5.4,61.3a10.836,10.836,0,0,1-3.349,7.25A9.1,9.1,0,0,1,533.522,247.9Zm-14.8-43.3a7.4,7.4,0,0,0-6.6,3.051,15.423,15.423,0,0,0-3.2,8.35,14.177,14.177,0,0,0,1.7,8.5,7.433,7.433,0,0,0,12.7,1.2,15.515,15.515,0,0,0,3.1-8.7,13.528,13.528,0,0,0-1.6-8.5A7.672,7.672,0,0,0,518.722,204.6Z" transform="translate(-25.824 -113.208)"/><path class="cls-1" d="M577.923,247a26.449,26.449,0,0,1-21-8,32.318,32.318,0,0,1-2.1-42.2,26.964,26.964,0,0,1,40.8-2.1,30.853,30.853,0,0,1,9,20.6q.6,12.5-6.6,21.5A26.5,26.5,0,0,1,577.923,247Zm-2.2-42.4a7.545,7.545,0,0,0-6.349,3.85,14.855,14.855,0,0,0-1.95,8.851,14.7,14.7,0,0,0,2.9,8.35,7.782,7.782,0,0,0,12.949-.65,14.426,14.426,0,0,0,1.95-8.7,15.329,15.329,0,0,0-2.849-8.5A7.449,7.449,0,0,0,575.722,204.6Z" transform="translate(-25.824 -113.208)"/><path class="cls-1" d="M629.423,225.6a97.492,97.492,0,0,1,4.3,10.6,10.965,10.965,0,0,1,.8,4.1q0,6.7-6.6,9a9.085,9.085,0,0,1-3.2.6q-6.9,0-9.4-7.4l-20-58.2a12.054,12.054,0,0,1-.7-4q0-6.9,6.4-9.1a9.345,9.345,0,0,1,3.3-.6q6.8,0,9.3,7.4l9,26.2,7.3-14.4q3.4-6.7,9.2-6.7a8.443,8.443,0,0,1,6.35,2.8,9.171,9.171,0,0,1,2.65,6.5,10.212,10.212,0,0,1-1.6,5.2l-7.1,12.8,20.3,12a9.036,9.036,0,0,1,4.8,8.3q0,6.6-6.2,8.8a10.148,10.148,0,0,1-2.8.4q-3.1,0-7.3-2.6Z" transform="translate(-25.824 -113.208)"/><path class="cls-1" d="M689.424,247q-12.2.6-19.55-5.35t-7.851-16.75l-1.4-26a10.944,10.944,0,0,1,2.349-7.65,8.934,8.934,0,0,1,6.851-3.35,9.087,9.087,0,0,1,7.1,2.65,10.557,10.557,0,0,1,3.1,7.35l1.3,25.6a6.568,6.568,0,0,0,2.25,4.9,7.221,7.221,0,0,0,9.649-.5,6.3,6.3,0,0,0,1.7-5.1l-1.3-25.6a10.584,10.584,0,0,1,2.25-7.649,8.929,8.929,0,0,1,6.849-3.351,9.152,9.152,0,0,1,7.151,2.6,10.6,10.6,0,0,1,3.05,7.4l1.4,25.9q.6,10.9-6.051,17.551T689.424,247Z" transform="translate(-25.824 -113.208)"/></svg>