<svg id="Layer_1" data-name="Layer 1" xmlns="http://www.w3.org/2000/svg" viewBox="0 0 360.01 360"><defs><style>.cls-1{fill:#212121;opacity:0.04;}</style></defs><title>cogs-pattern</title><path class="cls-1" d="M0,85.02l4.62-4.27a48.993,48.993,0,0,0,7.33,3.74l-1.2,10.24,2.66.87,5.05-9a48.068,48.068,0,0,0,8.12,1.28L28.6,98h2.8l2.02-10.12a48.335,48.335,0,0,0,8.12-1.28l5.05,8.99,2.66-.86-1.2-10.24a47.7,47.7,0,0,0,7.33-3.74l7.58,7,2.26-1.65-4.3-9.38a48.288,48.288,0,0,0,5.8-5.8l9.38,4.3,1.65-2.26-7-7.58a48.993,48.993,0,0,0,3.74-7.33l10.24,1.2.87-2.66-9-5.05a48.042,48.042,0,0,0,1.28-8.12L88,41.4V38.6L77.88,36.58a48.335,48.335,0,0,0-1.28-8.12l8.99-5.05-.86-2.66-10.24,1.2a47.7,47.7,0,0,0-3.74-7.33l7-7.58L76.1,4.78l-9.38,4.3a48.288,48.288,0,0,0-5.8-5.8L62.42,0h2.16L63.33,2.72a50.074,50.074,0,0,1,3.95,3.95l9.5-4.36L80.3,7.16l-7.08,7.68a47.558,47.558,0,0,1,2.54,4.98l10.38-1.21,1.85,5.7-9.11,5.12a49.971,49.971,0,0,1,.87,5.52L90,37v6L79.75,45.05a49.933,49.933,0,0,1-.87,5.52l9.11,5.12-1.85,5.7L75.76,60.18a49.611,49.611,0,0,1-2.54,4.98l7.08,7.68-3.52,4.85-9.5-4.36a50.074,50.074,0,0,1-3.95,3.95l4.36,9.5L62.84,90.3l-7.68-7.08a47.558,47.558,0,0,1-4.98,2.54l1.21,10.38-5.7,1.85-5.12-9.11a49.971,49.971,0,0,1-5.52.87L33,100H27L24.95,89.75a49.933,49.933,0,0,1-5.52-.87l-5.12,9.11-5.7-1.85L9.82,85.76a49.611,49.611,0,0,1-4.98-2.54L0,87.68ZM0,52.7V27.3l8.38,4.84a22.957,22.957,0,0,0,0,15.72ZM0,13.54A39.912,39.912,0,0,1,26,.2V17.35a22.981,22.981,0,0,0-13.62,7.86L0,18.06ZM0,66.46V61.94l12.38-7.15A22.981,22.981,0,0,0,26,62.65V79.8A39.912,39.912,0,0,1,0,66.46ZM34,79.8V62.65a22.981,22.981,0,0,0,13.62-7.86l14.85,8.58A39.969,39.969,0,0,1,34,79.8ZM66.48,56.44,51.62,47.86a22.957,22.957,0,0,0,0-15.72l14.86-8.58a40.151,40.151,0,0,1,0,32.88Zm-4.01-39.8L47.62,25.2A22.981,22.981,0,0,0,34,17.35V.2A39.969,39.969,0,0,1,62.47,16.63ZM0,50.38l5.98-3.45a25,25,0,0,1,0-13.88L0,29.6ZM.5,16.03l11.48,6.63A25.072,25.072,0,0,1,24,15.72V2.47A37.961,37.961,0,0,0,.5,16.04Zm0,47.92A37.962,37.962,0,0,0,24,77.53V64.28a24.976,24.976,0,0,1-12.02-6.95L.5,63.96ZM36,77.53A37.961,37.961,0,0,0,59.5,63.96L48.02,57.33A24.976,24.976,0,0,1,36,64.28ZM65.5,53.57a37.913,37.913,0,0,0,0-27.14L54.02,33.06a25,25,0,0,1,0,13.88l11.49,6.63Zm-6-37.53A37.961,37.961,0,0,0,36,2.47V15.72a24.968,24.968,0,0,1,12.02,6.95ZM30,54A14,14,0,1,1,44,40,14,14,0,0,1,30,54Zm0-2A12,12,0,1,0,18,40,12,12,0,0,0,30,52Zm0-2A10,10,0,1,1,40,40,10,10,0,0,1,30,50Zm0-2a8,8,0,1,0-8-8A8,8,0,0,0,30,48Zm77.47,45.17-1.62-5.97,5.67-2.06,2.61,5.64a33.071,33.071,0,0,1,3.33-.58l.52-6.2h6.04l.52,6.2a33.071,33.071,0,0,1,3.33.58l2.6-5.64,5.68,2.06-1.62,5.97a29.606,29.606,0,0,1,2.95,1.69l4.35-4.38,4.62,3.88-3.53,5a32.492,32.492,0,0,1,2.23,2.62l5.52-2.6,3.02,5.23-4.98,3.46a30.826,30.826,0,0,1,1.2,3.25l6.02-.54,1.05,5.94-5.84,1.54a28.861,28.861,0,0,1,0,3.48l5.84,1.54-1.05,5.94-6.02-.54a30.826,30.826,0,0,1-1.2,3.25l4.98,3.46-3.02,5.22-5.52-2.6a29.614,29.614,0,0,1-2.23,2.62l3.53,5-4.62,3.89-4.35-4.38a30.211,30.211,0,0,1-2.95,1.69l1.62,5.97-5.67,2.06-2.61-5.64a33.071,33.071,0,0,1-3.33.58l-.52,6.2h-6.04l-.52-6.2a30.265,30.265,0,0,1-3.33-.58l-2.6,5.64-5.68-2.06,1.62-5.97a28.789,28.789,0,0,1-2.95-1.69l-4.35,4.38-4.62-3.88,3.53-5a32.562,32.562,0,0,1-2.23-2.62l-5.52,2.6-3.02-5.23,4.98-3.46a29.57,29.57,0,0,1-1.2-3.25l-6.02.54-1.05-5.94,5.84-1.54a30.15,30.15,0,0,1,0-3.48l-5.84-1.54,1.05-5.94,6.02.54a30.826,30.826,0,0,1,1.2-3.25l-4.98-3.46,3.02-5.22,5.52,2.6a29.614,29.614,0,0,1,2.23-2.62l-3.53-5,4.62-3.89,4.35,4.38A30.211,30.211,0,0,1,107.47,93.17Zm15.2-1.12-.5-6.05h-2.34l-.5,6.05a28.057,28.057,0,0,0-6.32,1.1l-2.54-5.5-2.2.8,1.6,5.85a27.973,27.973,0,0,0-5.56,3.21l-4.27-4.3-1.79,1.5,3.5,4.95a28.157,28.157,0,0,0-4.12,4.92l-5.5-2.59-1.16,2.02,4.98,3.46a27.78,27.78,0,0,0-2.2,6.03l-6.03-.55-.4,2.3,5.86,1.54a28.245,28.245,0,0,0,0,6.42l-5.87,1.55.4,2.3,6.05-.56a27.78,27.78,0,0,0,2.2,6.03l-5,3.47,1.17,2.02,5.49-2.59a28.157,28.157,0,0,0,4.12,4.92l-3.5,4.96,1.79,1.5,4.27-4.31a27.973,27.973,0,0,0,5.56,3.21l-1.6,5.85,2.2.8,2.54-5.5a28.057,28.057,0,0,0,6.32,1.1l.5,6.05h2.34l.5-6.05a28.057,28.057,0,0,0,6.32-1.1l2.54,5.5,2.2-.8-1.6-5.85a27.973,27.973,0,0,0,5.56-3.21l4.27,4.3,1.79-1.5-3.5-4.95a28.157,28.157,0,0,0,4.12-4.92l5.5,2.59,1.16-2.02-4.98-3.46a27.78,27.78,0,0,0,2.2-6.03l6.03.55.4-2.3-5.86-1.54a28.36,28.36,0,0,0,0-6.42l5.87-1.55-.4-2.3-6.05.56a27.78,27.78,0,0,0-2.2-6.03l4.99-3.46L149.85,102l-5.49,2.59a28.157,28.157,0,0,0-4.12-4.92l3.5-4.96-1.79-1.5-4.27,4.31a27.973,27.973,0,0,0-5.56-3.21l1.6-5.85-2.2-.8-2.54,5.5a28.057,28.057,0,0,0-6.32-1.1ZM121,128a8,8,0,1,1,8-8A8,8,0,0,1,121,128Zm0-2a6,6,0,0,0,0-12h0a6,6,0,0,0,0,12Zm0-18a5,5,0,1,1,5-5A5,5,0,0,1,121,108Zm8.49,3.51a5,5,0,0,1,6.95-7.2h0a5,5,0,1,1-6.95,7.2ZM133,120a5,5,0,1,1,5,5A5,5,0,0,1,133,120Zm-3.51,8.49a5,5,0,1,1,7.2,6.95h0a5,5,0,0,1-7.2-6.95ZM121,132a5,5,0,1,1-5,5A5,5,0,0,1,121,132Zm-8.49-3.51a5,5,0,0,1-6.95,7.2h0a5,5,0,1,1,6.95-7.2ZM109,120a5,5,0,1,1-5-5A5,5,0,0,1,109,120Zm3.51-8.49a5,5,0,1,1-.125-7.075,5,5,0,0,1,.125,7.075ZM121,106a3,3,0,0,0,0-6h0a3,3,0,0,0,0,6Zm9.9,4.1a3,3,0,1,0,.15-4.24A3,3,0,0,0,130.9,110.1ZM135,120a3,3,0,1,0,3-3A3,3,0,0,0,135,120Zm-4.1,9.9a3,3,0,1,0,4.24.15A3,3,0,0,0,130.9,129.9ZM121,134a3,3,0,1,0,3,3,3,3,0,0,0-3-3Zm-9.9-4.1a3,3,0,1,0-.15,4.24A3,3,0,0,0,111.1,129.9ZM107,120a3,3,0,1,0-3,3A3,3,0,0,0,107,120Zm4.1-9.9a3,3,0,1,0-4.09-4.39h0a3,3,0,0,0,4.09,4.39Zm129.42-6.95v.01c.87.07,1.74.17,2.6.3l1.5-3.91,1.94-3.64,3.89.97v4.13l-.5,4.13c.83.28,1.64.59,2.44.93l2.42-3.43,2.76-3.07,3.54,1.88-1,4-1.49,3.89c.73.47,1.45.97,2.15,1.49l3.19-2.76,3.42-2.3,2.97,2.67-1.93,3.65-2.38,3.4c.6.64,1.2,1.3,1.76,1.99l3.68-1.94,3.85-1.48,2.29,3.28-2.7,3.11-3.12,2.82c.43.76.84,1.53,1.22,2.32l4.04-1,4.1-.5,1.43,3.73-3.37,2.37-3.7,1.98c.23.84.44,1.68.62,2.54l4.17.01,4.1.5.48,3.97-3.85,1.48-4.06,1.02c.03.87.03,1.75,0,2.62l4.06,1.02,3.85,1.48-.48,3.97-4.1.51h-4.17c-.18.86-.39,1.71-.63,2.54l3.7,1.98,3.38,2.37-1.43,3.73-4.1-.5-4.04-1c-.38.79-.79,1.56-1.22,2.32l3.13,2.82,2.7,3.11-2.3,3.28-3.85-1.48-3.68-1.95q-.843,1.032-1.76,2l2.38,3.41,1.93,3.64-2.97,2.67-3.42-2.3-3.19-2.76q-1.05.774-2.15,1.48l1.48,3.9,1,4-3.53,1.88-2.76-3.07-2.42-3.43c-.8.33-1.61.65-2.45.93l.5,4.13v4.13l-3.88.97-1.94-3.65-1.5-3.9c-.86.13-1.73.23-2.6.31L240,187l-1,4h-4l-1-4-.52-4.16q-1.3-.1-2.6-.3l-1.5,3.91-1.94,3.64-3.89-.97v-4.13l.5-4.13c-.83-.28-1.64-.59-2.44-.93l-2.42,3.43-2.76,3.07-3.54-1.88,1-4,1.49-3.89c-.74-.47-1.45-.97-2.15-1.49l-3.19,2.76-3.42,2.3-2.97-2.67,1.93-3.65,2.38-3.4c-.61-.65-1.2-1.31-1.76-1.99l-3.68,1.94-3.85,1.48-2.29-3.28,2.7-3.11,3.12-2.82c-.43-.76-.84-1.53-1.22-2.32l-4.04,1-4.1.5-1.43-3.73,3.37-2.37,3.7-1.98c-.23-.84-.44-1.68-.62-2.54l-4.17-.01-4.1-.5-.48-3.97,3.85-1.48,4.06-1.02c-.03-.87-.03-1.75,0-2.62l-4.06-1.02-3.85-1.48.48-3.97,4.1-.51h4.17c.18-.86.39-1.71.63-2.54l-3.7-1.98-3.38-2.37,1.43-3.73,4.1.5,4.04,1c.38-.79.79-1.56,1.22-2.32l-3.13-2.82-2.7-3.11,2.3-3.28,3.85,1.48,3.68,1.95q.843-1.032,1.76-2l-2.38-3.41-1.93-3.64,2.97-2.67,3.42,2.3,3.19,2.76c.7-.52,1.41-1.02,2.15-1.48l-1.48-3.9-1-4,3.53-1.88,2.76,3.07,2.42,3.43c.8-.33,1.61-.65,2.45-.93l-.5-4.13V96.88l3.88-.97,1.94,3.65,1.5,3.9c.86-.13,1.73-.23,2.6-.31L234,99l1-4h4l1,4,.52,4.15Zm-14.3,3.4a38.282,38.282,0,0,0-5.3,2l-3.5-4.97-1.38-1.53-.88.47.5,2,2.16,5.67a38.112,38.112,0,0,0-4.66,3.22l-4.61-4-1.71-1.15-.75.67.97,1.82,3.47,4.98a38.31,38.31,0,0,0-3.79,4.28l-5.37-2.84-1.92-.74-.57.82,1.35,1.56,4.52,4.09a37.928,37.928,0,0,0-2.64,5l-5.89-1.45-2.04-.25-.36.94,1.69,1.18,5.36,2.87a37.792,37.792,0,0,0-1.35,5.5l-6.08.01-2.04.25-.12,1,1.92.73,5.9,1.5a38.6,38.6,0,0,0,0,5.65l-5.9,1.49-1.92.74.12.99,2.04.25,6.08.01a38.714,38.714,0,0,0,1.35,5.5l-5.36,2.87-1.7,1.18.37.94,2.04-.25,5.9-1.46a37.984,37.984,0,0,0,2.63,5.01l-4.52,4.1-1.35,1.55.57.82,1.92-.74,5.37-2.84a38.21,38.21,0,0,0,3.8,4.28l-3.48,4.98-.97,1.82.75.67,1.7-1.15,4.62-4a38.112,38.112,0,0,0,4.66,3.22l-2.17,5.67-.5,2,.89.47,1.38-1.53,3.5-4.98a35.889,35.889,0,0,0,5.3,2l-.73,6.04v2.06l.97.24.97-1.82,2.2-5.68a37.043,37.043,0,0,0,5.62.68L236,187l.5,2h1l.5-2,.75-6.04a38.194,38.194,0,0,0,5.62-.68l2.2,5.68.97,1.82.97-.24v-2.06l-.73-6.03a38.282,38.282,0,0,0,5.3-2l3.5,4.97,1.38,1.53.88-.47-.5-2-2.16-5.67a38,38,0,0,0,4.66-3.22l4.61,4,1.71,1.15.75-.67-.97-1.82-3.47-4.98a38.31,38.31,0,0,0,3.79-4.28l5.37,2.84,1.92.74.57-.82-1.35-1.56-4.52-4.09a39.1,39.1,0,0,0,2.64-5l5.89,1.45,2.04.25.36-.94-1.69-1.18-5.36-2.87a37.409,37.409,0,0,0,1.35-5.5l6.08-.01,2.04-.25.12-1-1.92-.73-5.9-1.5a38.055,38.055,0,0,0,0-5.65l5.9-1.49,1.92-.74-.12-.99-2.04-.25-6.08-.01a37.409,37.409,0,0,0-1.35-5.5l5.36-2.87,1.7-1.18-.37-.94-2.04.25-5.9,1.46a37.984,37.984,0,0,0-2.63-5.01l4.52-4.1,1.35-1.55-.57-.82-1.92.74-5.37,2.84a38.21,38.21,0,0,0-3.8-4.28l3.48-4.98.97-1.82-.75-.67-1.7,1.15-4.62,4a38.112,38.112,0,0,0-4.66-3.22l2.17-5.67.5-2-.89-.47-1.38,1.53-3.5,4.98a35.889,35.889,0,0,0-5.3-2l.73-6.04V98.46l-.97-.24-.97,1.82-2.2,5.68a37.043,37.043,0,0,0-5.62-.68L238,99l-.5-2h-1l-.5,2-.75,6.04a38.193,38.193,0,0,0-5.62.68l-2.2-5.68-.97-1.82-.97.24v2.06l.73,6.03Zm-5.85,5.65A34.822,34.822,0,0,1,236,108v6a28.8,28.8,0,0,0-12.63,3.39l-3-5.2v.01Zm2.8.83,1,1.74a30.8,30.8,0,0,1,9.83-2.63v-2.01A32.8,32.8,0,0,0,223.17,113.03Zm-4.53.17,3,5.2a29.119,29.119,0,0,0-9.24,9.24l-5.2-3A35.189,35.189,0,0,1,218.64,113.2Zm-.67,2.84a33.177,33.177,0,0,0-7.93,7.93l1.74,1a31.182,31.182,0,0,1,7.2-7.2l-1.01-1.73ZM206.2,126.37h-.01l5.2,3A28.8,28.8,0,0,0,208,142h-6a34.822,34.822,0,0,1,4.2-15.63Zm.83,2.8a32.8,32.8,0,0,0-2.9,10.83h2.01a30.8,30.8,0,0,1,2.63-9.83ZM202.01,144h6.01a28.918,28.918,0,0,0,3.38,12.63l-5.2,3A34.818,34.818,0,0,1,202.01,144Zm2.12,2a32.809,32.809,0,0,0,2.9,10.84l1.74-1a30.779,30.779,0,0,1-2.63-9.84Zm3.07,15.36,5.2-3a29.119,29.119,0,0,0,9.24,9.24l-3,5.2A35.189,35.189,0,0,1,207.2,161.36Zm2.84.67a33.177,33.177,0,0,0,7.93,7.93l1-1.74a31.182,31.182,0,0,1-7.2-7.2l-1.73,1.01Zm10.33,11.77v.01l3-5.2A28.842,28.842,0,0,0,236,172v6A34.822,34.822,0,0,1,220.37,173.8Zm2.8-.83a32.8,32.8,0,0,0,10.83,2.9v-2.01a30.8,30.8,0,0,1-9.83-2.63ZM238,177.99v-6.01a28.918,28.918,0,0,0,12.63-3.38l3,5.2A34.818,34.818,0,0,1,238,177.99Zm2-2.12a32.809,32.809,0,0,0,10.84-2.9l-1-1.74a30.779,30.779,0,0,1-9.84,2.63Zm15.36-3.07-3-5.2a29.119,29.119,0,0,0,9.24-9.24l5.2,3a35.189,35.189,0,0,1-11.44,11.44Zm.67-2.84a33.177,33.177,0,0,0,7.93-7.93l-1.74-1a31.182,31.182,0,0,1-7.2,7.2Zm11.77-10.33h.01l-5.2-3A28.842,28.842,0,0,0,266,144h6A34.822,34.822,0,0,1,267.8,159.63Zm-.83-2.8a32.8,32.8,0,0,0,2.9-10.83h-2.01a30.8,30.8,0,0,1-2.63,9.83l1.74,1ZM271.99,142h-6.01a28.852,28.852,0,0,0-3.38-12.63l5.2-3A34.818,34.818,0,0,1,271.99,142Zm-2.12-2a32.809,32.809,0,0,0-2.9-10.84l-1.74,1a30.779,30.779,0,0,1,2.63,9.84Zm-3.07-15.36-5.2,3a29.119,29.119,0,0,0-9.24-9.24l3-5.2a35.189,35.189,0,0,1,11.44,11.44Zm-2.84-.67a33.177,33.177,0,0,0-7.93-7.93l-1,1.74a31.182,31.182,0,0,1,7.2,7.2l1.73-1.01ZM238,108a34.818,34.818,0,0,1,15.63,4.19l-3,5.2A28.852,28.852,0,0,0,238,114.01Zm12.84,5.02a32.809,32.809,0,0,0-10.84-2.9v2.01a30.8,30.8,0,0,1,9.83,2.63l1-1.74ZM237,156a13,13,0,1,1,13-13A13,13,0,0,1,237,156Zm0-2a11,11,0,1,0-11-11,11,11,0,0,0,11,11ZM137.54,0h56.92l-.74,1.03c.57.7,1.12,1.4,1.64,2.14l7.75-2.9,2,3.46-6.38,5.25c.37.82.72,1.65,1.03,2.5l8.22-.8,1.04,3.86-7.52,3.43c.15.88.26,1.77.35,2.67L210,22v4l-8.15,1.36c-.09.9-.2,1.8-.35,2.67l7.52,3.43-1.04,3.86-8.22-.8c-.31.85-.66,1.68-1.03,2.5l6.38,5.25-2,3.46-7.75-2.9c-.52.74-1.07,1.45-1.64,2.14l4.8,6.73-2.82,2.83-6.73-4.8c-.7.56-1.4,1.11-2.14,1.63l2.9,7.75-3.46,2-5.25-6.38c-.82.37-1.65.72-2.5,1.03l.8,8.22-3.86,1.04-3.43-7.52c-.88.15-1.77.26-2.67.35L168,68h-4l-1.36-8.15c-.9-.09-1.8-.2-2.67-.35l-3.43,7.52-3.86-1.04.8-8.22c-.85-.31-1.68-.66-2.5-1.03l-5.25,6.38-3.46-2,2.9-7.75q-1.1-.78-2.14-1.64l-6.73,4.8-2.83-2.82,4.8-6.73c-.56-.7-1.11-1.4-1.63-2.14l-7.75,2.9-2-3.46,6.38-5.25c-.37-.82-.72-1.65-1.03-2.5l-8.22.8-1.04-3.86,7.52-3.43c-.15-.88-.26-1.77-.35-2.67L122,26V22l8.15-1.36c.09-.9.2-1.8.35-2.67l-7.52-3.43,1.04-3.86,8.22.8c.31-.85.66-1.68,1.03-2.5l-6.38-5.25,2-3.46,7.75,2.9c.52-.74,1.07-1.45,1.64-2.14Zm2.43,0,.83,1.17a34.146,34.146,0,0,0-3.38,4.4l-7.63-2.86-.33.58,6.29,5.18a33.733,33.733,0,0,0-2.13,5.12l-8.1-.78-.18.64,7.42,3.37a34.07,34.07,0,0,0-.72,5.5L124,23.68v.66l8.04,1.34a34.181,34.181,0,0,0,.72,5.5l-7.42,3.38.18.64,8.1-.78a33.878,33.878,0,0,0,2.13,5.12l-6.29,5.18.33.58,7.63-2.86a33.584,33.584,0,0,0,3.38,4.4l-4.73,6.63.47.47,6.63-4.73a34.146,34.146,0,0,0,4.4,3.38l-2.86,7.63.58.33,5.18-6.29a33.879,33.879,0,0,0,5.12,2.13l-.78,8.1.64.18,3.37-7.42a33.373,33.373,0,0,0,5.5.72l1.35,8.04h.66l1.34-8.04a34.181,34.181,0,0,0,5.5-.72l3.38,7.42.64-.18-.78-8.1a33.878,33.878,0,0,0,5.12-2.13l5.18,6.29.58-.33-2.86-7.63a33.584,33.584,0,0,0,4.4-3.38l6.63,4.73.47-.47-4.73-6.63a34.146,34.146,0,0,0,3.38-4.4l7.63,2.86.33-.58-6.29-5.18a33.733,33.733,0,0,0,2.13-5.12l8.1.78.18-.64-7.42-3.37a33.373,33.373,0,0,0,.72-5.5L208,24.34v-.66l-8.04-1.34a34.181,34.181,0,0,0-.72-5.5l7.42-3.38-.18-.64-8.1.78a33.733,33.733,0,0,0-2.13-5.12l6.29-5.18-.33-.58-7.63,2.86a33.584,33.584,0,0,0-3.38-4.4l.83-1.17H139.97V0Zm-2.82,27H151.3A15.022,15.022,0,0,0,163,38.7V52.85A29.011,29.011,0,0,1,137.15,27ZM149.72,0H163V9.3A15.022,15.022,0,0,0,151.3,21H137.15A28.991,28.991,0,0,1,149.72,0ZM169,52.85V38.7A15.022,15.022,0,0,0,180.7,27h14.15A29.011,29.011,0,0,1,169,52.85ZM182.28,0a28.991,28.991,0,0,1,12.57,21H180.7A15.022,15.022,0,0,0,169,9.3V0ZM139.46,29A27.03,27.03,0,0,0,161,50.54V40.25A17.041,17.041,0,0,1,149.75,29ZM153.62,0a27.04,27.04,0,0,0-14.16,19h10.29A17.041,17.041,0,0,1,161,7.75V0ZM171,50.54A27.03,27.03,0,0,0,192.54,29H182.25A17.041,17.041,0,0,1,171,40.25ZM178.38,0H171V7.75A17.041,17.041,0,0,1,182.25,19h10.29A27.043,27.043,0,0,0,178.38,0ZM166,34a10,10,0,1,1,10-10A10,10,0,0,1,166,34Zm0-2a8,8,0,1,0-8-8A8,8,0,0,0,166,32ZM126.49,208.15l-10.67-7.95,6-10.4,12.23,5.27a23.96,23.96,0,0,1,8.4-4.86L144,177h12l1.55,13.21a23.96,23.96,0,0,1,8.4,4.86l12.23-5.27,6,10.4-10.67,7.95a24.008,24.008,0,0,1,0,9.7l10.67,7.95-6,10.4-12.23-5.27a23.96,23.96,0,0,1-8.4,4.86L156,249H144l-1.55-13.21a23.96,23.96,0,0,1-8.4-4.86l-12.23,5.27-6-10.4,10.67-7.95a24.115,24.115,0,0,1,0-9.7Zm29.25-16.4L154.24,179h-8.48l-1.5,12.76a22.013,22.013,0,0,0-9.79,5.65l-11.8-5.08-4.23,7.34,10.3,7.68a22.083,22.083,0,0,0,0,11.3l-10.3,7.68,4.23,7.34,11.8-5.08a22.091,22.091,0,0,0,9.8,5.65l1.5,12.76h8.47l1.5-12.76a22.013,22.013,0,0,0,9.79-5.65l11.8,5.08,4.23-7.34-10.3-7.68a22.083,22.083,0,0,0,0-11.3l10.3-7.68-4.23-7.34-11.8,5.08a21.979,21.979,0,0,0-9.8-5.65l.01-.01ZM150,225a12,12,0,1,1,12-12A12,12,0,0,1,150,225Zm0-2a10,10,0,1,0-10-10A10,10,0,0,0,150,223Zm3.53,67.72,4.26.07.51,1.93-3.65,2.19c.11.63.2,1.27.25,1.92L159,298v2l-4.1,1.17c-.05.65-.14,1.29-.25,1.92l3.65,2.2-.51,1.92-4.26.07c-.22.61-.47,1.21-.74,1.8l2.96,3.05-1,1.74-4.13-1.04q-.559.793-1.18,1.54l2.07,3.72-1.42,1.42-3.72-2.07c-.5.41-1.01.8-1.54,1.18l1.04,4.13-1.74,1-3.05-2.96c-.59.27-1.19.52-1.8.74l-.07,4.26-1.93.51-2.19-3.65c-.63.11-1.27.2-1.92.25L132,327h-2l-1.17-4.1c-.65-.05-1.29-.14-1.92-.25l-2.2,3.65-1.92-.51-.07-4.26c-.61-.22-1.21-.47-1.8-.74l-3.05,2.96-1.74-1,1.04-4.13q-.793-.559-1.54-1.18l-3.72,2.07-1.42-1.42,2.07-3.72c-.41-.5-.8-1.01-1.18-1.54l-4.13,1.04-1-1.74,2.96-3.05c-.27-.59-.52-1.19-.74-1.8l-4.26-.07-.51-1.93,3.65-2.19c-.11-.63-.2-1.27-.25-1.92L103,300v-2l4.1-1.17c.05-.65.14-1.29.25-1.92l-3.65-2.2.51-1.92,4.26-.07c.22-.61.47-1.21.74-1.8l-2.96-3.05,1-1.74,4.13,1.04c.38-.53.77-1.04,1.18-1.54l-2.07-3.72,1.42-1.42,3.72,2.07c.5-.41,1.01-.8,1.54-1.18l-1.04-4.13,1.74-1,3.05,2.96c.59-.27,1.19-.52,1.8-.74l.07-4.26,1.93-.51,2.19,3.65c.63-.11,1.27-.2,1.92-.25L130,271h2l1.17,4.1c.65.05,1.29.14,1.92.25l2.2-3.65,1.92.51.07,4.26c.61.22,1.21.47,1.8.74l3.05-2.96,1.74,1-1.04,4.13c.53.38,1.04.77,1.54,1.18l3.72-2.07,1.42,1.42-2.07,3.72c.41.5.8,1.01,1.18,1.54l4.13-1.04,1,1.74-2.96,3.05C153.06,289.51,153.31,290.11,153.53,290.72ZM109,299a22,22,0,1,0,22-22A22,22,0,0,0,109,299Zm27.11-10.86-3,5.22a6.005,6.005,0,0,0-4.21,0l-3.01-5.22a11.952,11.952,0,0,1,10.22,0Zm1.74,1a12,12,0,0,1,5.1,8.86h-6.01a6.008,6.008,0,0,0-2.1-3.64l3-5.22Zm-13.7,0,3.02,5.22a6.011,6.011,0,0,0-2.1,3.64h-6.03a12,12,0,0,1,5.11-8.86ZM119.05,300h6.01a6.008,6.008,0,0,0,2.1,3.64l-3,5.22a12,12,0,0,1-5.12-8.86Zm6.84,9.86,3-5.22a6.005,6.005,0,0,0,4.21,0l3.01,5.22A11.952,11.952,0,0,1,125.89,309.86Zm11.96-1-3.02-5.22a6.011,6.011,0,0,0,2.1-3.64h6.03a12,12,0,0,1-5.11,8.86Zm-4.68-19.62a10.053,10.053,0,0,0-4.34,0l1.05,1.82a8.4,8.4,0,0,1,2.24,0l1.05-1.82Zm5.2,3-1.05,1.82a7.971,7.971,0,0,1,1.12,1.94h2.1A9.994,9.994,0,0,0,138.37,292.24Zm-14.74,0a9.994,9.994,0,0,0-2.17,3.76h2.1a7.971,7.971,0,0,1,1.12-1.94ZM121.46,302a9.994,9.994,0,0,0,2.17,3.76l1.05-1.82a8.033,8.033,0,0,1-1.12-1.94Zm7.37,6.76a9.93,9.93,0,0,0,4.34,0l-1.05-1.82a8.4,8.4,0,0,1-2.24,0l-1.05,1.82Zm9.54-3a9.994,9.994,0,0,0,2.17-3.76h-2.1a7.971,7.971,0,0,1-1.12,1.94ZM127,299a4,4,0,1,1,4,4A4,4,0,0,1,127,299Zm2,0a2,2,0,1,0,2-2A2,2,0,0,0,129,299Zm15,0a4,4,0,1,1,4,4A4,4,0,0,1,144,299Zm-6.5,11.26a4,4,0,0,1,4,6.93h0a4,4,0,1,1-4-6.93Zm-13,0a4,4,0,0,1-4,6.93h0a4,4,0,1,1,4-6.93ZM118,299a4,4,0,1,1-4-4A4,4,0,0,1,118,299Zm6.5-11.26a4,4,0,1,1,1.465-5.465,4,4,0,0,1-1.465,5.465Zm13,0a4,4,0,1,1,5.465-1.465,4,4,0,0,1-5.465,1.465ZM146,299a2,2,0,1,0,2-2A2,2,0,0,0,146,299Zm-7.5,12.99a2,2,0,1,0,2.65.99A2,2,0,0,0,138.5,311.99Zm-15,0a2,2,0,1,0,.615,2.765,2,2,0,0,0-.615-2.765ZM116,299a2,2,0,1,0-2,2A2,2,0,0,0,116,299Zm7.5-12.99a2,2,0,1,0-2.65-.99A2,2,0,0,0,123.5,286.01Zm15,0a2,2,0,1,0,2.15-3.38h0a2,2,0,0,0-2.15,3.38Zm103.8-61.7-.8-8.22,5.8-1.55,3.42,7.52a58.157,58.157,0,0,1,6.92-.9L259,213h6l1.36,8.16a58.157,58.157,0,0,1,6.92.9l3.42-7.52,5.8,1.55-.8,8.22a57.975,57.975,0,0,1,6.45,2.68l5.25-6.38,5.2,3-2.9,7.74a60.367,60.367,0,0,1,5.53,4.25l6.73-4.8,4.24,4.24-4.8,6.73a60.367,60.367,0,0,1,4.25,5.53l7.74-2.9,3,5.2-6.38,5.25a59.417,59.417,0,0,1,2.68,6.45l8.22-.8,1.55,5.8-7.52,3.42a58.157,58.157,0,0,1,.9,6.92L330,278v6l-8.16,1.36a60.108,60.108,0,0,1-.9,6.92l7.52,3.42-1.55,5.8-8.22-.8a59.618,59.618,0,0,1-2.68,6.45l6.38,5.25-3,5.2-7.74-2.9a60.367,60.367,0,0,1-4.25,5.53l4.8,6.73-4.24,4.24-6.73-4.8a60.367,60.367,0,0,1-5.53,4.25l2.9,7.74-5.2,3-5.25-6.38a59.417,59.417,0,0,1-6.45,2.68l.8,8.22-5.8,1.55-3.42-7.52a58.157,58.157,0,0,1-6.92.9L265,349h-6l-1.36-8.16a60.108,60.108,0,0,1-6.92-.9l-3.42,7.52-5.8-1.55.8-8.22a59.618,59.618,0,0,1-6.45-2.68l-5.25,6.38-5.2-3,2.9-7.74a60.367,60.367,0,0,1-5.53-4.25l-6.73,4.8-4.24-4.24,4.8-6.73a60.367,60.367,0,0,1-4.25-5.53l-7.74,2.9-3-5.2,6.38-5.25a59.618,59.618,0,0,1-2.68-6.45l-8.22.8-1.55-5.8,7.52-3.42a62.075,62.075,0,0,1-.9-6.92L194,284v-6l8.16-1.36a58.157,58.157,0,0,1,.9-6.92l-7.52-3.42,1.55-5.8,8.22.8a60.45,60.45,0,0,1,2.68-6.45l-6.38-5.25,3-5.2,7.74,2.9a60.367,60.367,0,0,1,4.25-5.53l-4.8-6.73,4.24-4.24,6.73,4.8a60.367,60.367,0,0,1,5.53-4.25l-2.9-7.74,5.2-3,5.25,6.38a59.618,59.618,0,0,1,6.45-2.68Zm2.12,1.4a57.488,57.488,0,0,0-9.08,3.77l-5.19-6.3-2.3,1.33,2.86,7.65a58.256,58.256,0,0,0-7.79,5.98l-6.65-4.75-1.88,1.88,4.75,6.65a58.256,58.256,0,0,0-5.98,7.79l-7.65-2.86-1.33,2.3,6.3,5.2a57.674,57.674,0,0,0-3.77,9.07l-8.12-.79-.69,2.58,7.43,3.38a58.082,58.082,0,0,0-1.27,9.73L196,279.67v2.66l8.06,1.35a57.675,57.675,0,0,0,1.27,9.73l-7.43,3.38.7,2.58,8.11-.79a57.488,57.488,0,0,0,3.77,9.08l-6.3,5.19,1.33,2.3,7.65-2.86a58.256,58.256,0,0,0,5.98,7.79l-4.75,6.65,1.88,1.88,6.65-4.75a60.277,60.277,0,0,0,7.79,5.98l-2.86,7.65,2.3,1.33,5.2-6.3a56.994,56.994,0,0,0,9.07,3.77l-.79,8.12,2.58.69,3.38-7.43a57.542,57.542,0,0,0,9.73,1.27l1.35,8.06h2.66l1.35-8.06a57.675,57.675,0,0,0,9.73-1.27l3.38,7.43,2.58-.7-.79-8.11a57.488,57.488,0,0,0,9.08-3.77l5.19,6.3,2.3-1.33-2.86-7.65a58.256,58.256,0,0,0,7.79-5.98l6.65,4.75,1.88-1.88-4.75-6.65a60.277,60.277,0,0,0,5.98-7.79l7.65,2.86,1.33-2.3-6.3-5.2a56.994,56.994,0,0,0,3.77-9.07l8.12.79.69-2.58-7.43-3.38a58.082,58.082,0,0,0,1.27-9.73l8.06-1.35v-2.66l-8.06-1.35a58.082,58.082,0,0,0-1.27-9.73l7.43-3.38-.7-2.58-8.11.79a57.488,57.488,0,0,0-3.77-9.08l6.3-5.19-1.33-2.3-7.65,2.86a58.256,58.256,0,0,0-5.98-7.79l4.75-6.65-1.88-1.88-6.65,4.75a58.256,58.256,0,0,0-7.79-5.98l2.86-7.65-2.3-1.33-5.2,6.3a57.674,57.674,0,0,0-9.07-3.77l.79-8.12-2.58-.69-3.38,7.43a58.082,58.082,0,0,0-9.73-1.27L263.33,215h-2.66l-1.35,8.06a57.675,57.675,0,0,0-9.73,1.27l-3.38-7.43-2.58.7.79,8.11Zm4.58,50.1a13.958,13.958,0,0,0,0,10.39l-33.88,19.55a53.106,53.106,0,0,1,0-49.5L249,275.8Zm2-3.47-33.87-19.56A52.97,52.97,0,0,1,260,228.04v39.1A13.99,13.99,0,0,0,251,272.34Zm0,17.32a13.99,13.99,0,0,0,9,5.2v39.1a52.97,52.97,0,0,1-42.87-24.74Zm13,5.2a13.99,13.99,0,0,0,9-5.2l33.87,19.56A52.97,52.97,0,0,1,264,333.96v-39.1Zm11-8.66a13.955,13.955,0,0,0,0-10.4l33.88-19.55a53.106,53.106,0,0,1,0,49.5Zm-2-13.86a13.99,13.99,0,0,0-9-5.2v-39.1a52.97,52.97,0,0,1,42.87,24.74L273,272.34Zm-57.04-13.3a51.093,51.093,0,0,0,0,43.92l30.62-17.68a15.949,15.949,0,0,1,0-8.56l-30.62-17.68Zm4-6.93,30.62,17.68A16.078,16.078,0,0,1,258,265.5V230.15a50.96,50.96,0,0,0-38.04,21.96Zm0,57.78A50.96,50.96,0,0,0,258,331.85V296.5a15.984,15.984,0,0,1-7.42-4.29l-30.62,17.68ZM266,331.85a50.96,50.96,0,0,0,38.04-21.96l-30.62-17.68A16.078,16.078,0,0,1,266,296.5v35.35Zm42.04-28.89a51.093,51.093,0,0,0,0-43.92l-30.62,17.68a15.949,15.949,0,0,1,0,8.56l30.62,17.68Zm-4-50.85A50.96,50.96,0,0,0,266,230.15V265.5a16.079,16.079,0,0,1,7.42,4.29ZM262,290a9,9,0,1,1,9-9A9,9,0,0,1,262,290Zm0-2a7,7,0,1,0-7-7A7,7,0,0,0,262,288ZM0,242.64l2.76.4,4.75,2.27a38.073,38.073,0,0,1,2.85-3.4L7.3,237.63l-1.69-5.11,3.07-2.58,4.74,2.55,3.69,3.76a38.152,38.152,0,0,1,3.84-2.22l-1.42-5.07.17-5.38,3.76-1.37,3.6,4.02,2.17,4.79a36.582,36.582,0,0,1,4.37-.77L34,225l2-5h4l2,5,.4,5.25a36.582,36.582,0,0,1,4.37.77l2.18-4.8,3.59-4,3.76,1.36.17,5.38-1.42,5.07a39.478,39.478,0,0,1,3.84,2.22l3.69-3.76,4.74-2.55,3.07,2.58-1.69,5.11-3.06,4.29a38.073,38.073,0,0,1,2.85,3.4l4.75-2.28,5.33-.77,2,3.46-3.33,4.23-4.34,2.98a36.46,36.46,0,0,1,1.52,4.17l5.23-.52,5.27,1.1.7,3.94-4.58,2.84-5.1,1.31a38.686,38.686,0,0,1,0,4.44l5.1,1.3,4.58,2.85-.7,3.93-5.27,1.1-5.23-.5a36.357,36.357,0,0,1-1.52,4.16l4.34,2.98,3.33,4.23-2,3.46-5.33-.77-4.75-2.27a38.073,38.073,0,0,1-2.85,3.4l3.06,4.28,1.69,5.11-3.07,2.58-4.74-2.55-3.69-3.76a37.961,37.961,0,0,1-3.84,2.22l1.42,5.07-.17,5.38-3.76,1.37-3.6-4.02-2.17-4.79a36.582,36.582,0,0,1-4.37.77L42,311l-2,5H36l-2-5-.4-5.25a37.837,37.837,0,0,1-4.37-.77l-2.18,4.8-3.59,4-3.76-1.36-.17-5.38,1.42-5.07a36.761,36.761,0,0,1-3.84-2.22l-3.69,3.76-4.74,2.55-3.07-2.58,1.69-5.11,3.06-4.29a38.073,38.073,0,0,1-2.85-3.4l-4.75,2.28-2.76.4v-8.17l3.1-2.13a37.635,37.635,0,0,1-1.52-4.17L0,279.05v-8.82l.06-.01a38.686,38.686,0,0,1,0-4.44L0,265.77v-8.82l1.58.16a39.041,39.041,0,0,1,1.52-4.17L0,250.8v-8.16Zm0,1.87v3.89l5.62,3.84a35.7,35.7,0,0,0-2.55,7.02L0,258.96v4.75l2.2.56a36.469,36.469,0,0,0,0,7.46l-2.2.56v4.75l3.07-.3a35.191,35.191,0,0,0,2.55,7.02L0,287.6v3.89l1.76-.26,6.41-3.07a35.867,35.867,0,0,0,4.8,5.71l-4.14,5.78-1.01,3.07,1.22,1.03,2.85-1.52,4.98-5.08a36.468,36.468,0,0,0,6.45,3.73l-1.9,6.84.1,3.23,1.5.55,2.15-2.4,2.94-6.48a35.862,35.862,0,0,0,7.34,1.3L36,311l1.2,3h1.6l1.2-3,.55-7.09a35.913,35.913,0,0,0,7.34-1.29l2.94,6.47,2.15,2.4,1.5-.54.1-3.23-1.9-6.84a36.012,36.012,0,0,0,6.45-3.73l4.98,5.08,2.85,1.52,1.22-1.03-1-3.07-4.15-5.78a35.775,35.775,0,0,0,4.8-5.7l6.4,3.06,3.2.46.8-1.38-2-2.54-5.85-4.01a35.09,35.09,0,0,0,2.55-7.02l7.07.7,3.16-.66.28-1.58-2.75-1.7-6.88-1.77a35.772,35.772,0,0,0,0-7.46l6.88-1.77,2.75-1.7-.28-1.58L80,258.56l-7.07.7a35.678,35.678,0,0,0-2.55-7.02l5.86-4,2-2.55-.8-1.38-3.2.46-6.41,3.07a35.867,35.867,0,0,0-4.8-5.71l4.14-5.78,1.01-3.07-1.22-1.03-2.85,1.52-4.98,5.08a36.468,36.468,0,0,0-6.45-3.73l1.9-6.84-.1-3.23-1.5-.55-2.15,2.4-2.94,6.48a35.862,35.862,0,0,0-7.34-1.3L40,225l-1.2-3H37.2L36,225l-.55,7.09a35.3,35.3,0,0,0-7.34,1.29l-2.94-6.47-2.15-2.4-1.5.54-.1,3.23,1.9,6.84a36.012,36.012,0,0,0-6.45,3.73l-4.98-5.08-2.85-1.52-1.22,1.03,1,3.07,4.15,5.78a36.219,36.219,0,0,0-4.8,5.7l-6.4-3.06L0,244.5ZM38,272a4,4,0,1,1,4-4A4,4,0,0,1,38,272Zm0-2a2,2,0,1,0-2-2A2,2,0,0,0,38,270Zm0-26a4,4,0,1,1,4-4A4,4,0,0,1,38,244Zm24,24a4,4,0,1,1,4,4A4,4,0,0,1,62,268ZM38,292a4,4,0,1,1-4,4A4,4,0,0,1,38,292ZM14,268a4,4,0,1,1-4-4A4,4,0,0,1,14,268Zm24-26a2,2,0,1,0-2-2A2,2,0,0,0,38,242Zm26,26a2,2,0,1,0,2-2A2,2,0,0,0,64,268ZM38,294a2,2,0,1,0,2,2A2,2,0,0,0,38,294ZM12,268a2,2,0,1,0-2,2A2,2,0,0,0,12,268Zm3.37,22.63a12,12,0,1,1,16.955-.785A12,12,0,0,1,15.37,290.63Zm0-45.26a12,12,0,1,1,.785,16.955,12,12,0,0,1-.785-16.955Zm45.26,0a12,12,0,0,1-16.17,17.74h0a12,12,0,1,1,16.17-17.74Zm0,45.26a12,12,0,1,1-.785-16.955A12,12,0,0,1,60.63,290.63Zm-15.56-29.7a10,10,0,1,0,.245-14.145A10,10,0,0,0,45.07,260.93Zm0,14.14a10,10,0,0,0,13.9,14.39h0a10,10,0,1,0-13.9-14.39Zm-14.14,0a10,10,0,1,0-.245,14.145,10,10,0,0,0,.245-14.145Zm0-14.14a10,10,0,1,0-14.145-.245A10,10,0,0,0,30.93,260.93Zm230.9-245.4-.08-4.18,1.93-.52,2.04,3.67a29.351,29.351,0,0,1,3.26-.43L270,10h2l1.02,4.07a26.9,26.9,0,0,1,3.26.43l2.04-3.67,1.93.52-.07,4.19a27.134,27.134,0,0,1,3.04,1.26l2.91-3.01,1.74,1-1.16,4.03a30.032,30.032,0,0,1,2.61,2l3.6-2.15,1.41,1.41-2.16,3.6a26.054,26.054,0,0,1,2,2.6l4.04-1.15,1,1.74-3.01,2.91a27,27,0,0,1,1.26,3.04l4.2-.07.5,1.93-3.66,2.04a29.351,29.351,0,0,1,.43,3.26L303,41v2l-4.07,1.02a26.906,26.906,0,0,1-.43,3.26l3.67,2.04-.52,1.93-4.19-.07a27.874,27.874,0,0,1-1.26,3.04l3.01,2.91-1,1.74-4.03-1.16a30.032,30.032,0,0,1-2,2.61l2.15,3.6-1.41,1.41-3.6-2.16a26.054,26.054,0,0,1-2.6,2l1.15,4.04-1.74,1-2.91-3.01a27.134,27.134,0,0,1-3.04,1.26l.07,4.2-1.93.5-2.04-3.66a29.351,29.351,0,0,1-3.26.43L272,74h-2l-1.02-4.07a26.906,26.906,0,0,1-3.26-.43l-2.04,3.67-1.93-.52.07-4.19a27.874,27.874,0,0,1-3.04-1.26l-2.91,3.01-1.74-1,1.16-4.03a31.632,31.632,0,0,1-2.61-2l-3.6,2.15-1.41-1.41,2.16-3.6a26.054,26.054,0,0,1-2-2.6l-4.04,1.15-1-1.74,3.01-2.91a27.134,27.134,0,0,1-1.26-3.04l-4.2.07-.5-1.93,3.66-2.04a29.351,29.351,0,0,1-.43-3.26L239,43V41l4.07-1.02a26.9,26.9,0,0,1,.43-3.26l-3.67-2.04.52-1.93,4.19.07a27.134,27.134,0,0,1,1.26-3.04l-3.01-2.91,1-1.74,4.03,1.16a30.032,30.032,0,0,1,2-2.61l-2.15-3.6,1.41-1.41,3.6,2.16a26.054,26.054,0,0,1,2.6-2l-1.15-4.04,1.74-1,2.91,3.01a27.134,27.134,0,0,1,3.04-1.26l.01-.01ZM271,68a26,26,0,1,0-26-26A26,26,0,0,0,271,68Zm0-9a17,17,0,1,1,17-17A17,17,0,0,1,271,59Zm0-2a15,15,0,1,0-15-15A15,15,0,0,0,271,57Zm0-8a7,7,0,1,1,7-7A7,7,0,0,1,271,49Zm0-2a5,5,0,1,0-5-5A5,5,0,0,0,271,47Zm0-14a2,2,0,1,1,2-2A2,2,0,0,1,271,33Zm9,9a2,2,0,1,1,2,2A2,2,0,0,1,280,42Zm-9,9a2,2,0,1,1-2,2A2,2,0,0,1,271,51Zm-9-9a2,2,0,1,1-2-2A2,2,0,0,1,262,42Zm47.93,53.79-1.8-3.91,1.63-1.18,3.15,2.92a7.588,7.588,0,0,1,1.25-.4L315,89h2l.84,4.21a8.674,8.674,0,0,1,1.25.4l3.15-2.9,1.62,1.17-1.8,3.9a7.224,7.224,0,0,1,.78,1.06l4.26-.5.62,1.9-3.75,2.1a7.165,7.165,0,0,1,0,1.31l3.75,2.1-.62,1.9-4.26-.5a7.57,7.57,0,0,1-.77,1.06l1.8,3.91-1.63,1.18-3.15-2.92a7.588,7.588,0,0,1-1.25.4L317,113h-2l-.84-4.21a8.674,8.674,0,0,1-1.25-.4l-3.15,2.9-1.62-1.17,1.8-3.9a8.01,8.01,0,0,1-.78-1.06l-4.26.5-.62-1.9,3.75-2.1a8.185,8.185,0,0,1,0-1.31l-3.75-2.1.62-1.9,4.26.5A7.57,7.57,0,0,1,309.93,95.79ZM316,106a5,5,0,1,0-5-5A5,5,0,0,0,316,106ZM75.73,179.2l-.6-2.1,1.74-1,1.51,1.57a9.9,9.9,0,0,1,2.1-.55L81,175h2l.53,2.12a9.9,9.9,0,0,1,2.09.55l1.51-1.56,1.74,1-.6,2.1a9.93,9.93,0,0,1,1.52,1.52l2.1-.6,1,1.74-1.56,1.51a10.456,10.456,0,0,1,.55,2.1L94,186v2l-2.12.53a9.935,9.935,0,0,1-.55,2.09l1.56,1.51-1,1.74-2.1-.6a9.93,9.93,0,0,1-1.52,1.52l.6,2.1-1.74,1-1.51-1.56a10.456,10.456,0,0,1-2.1.55L83,199H81l-.53-2.12a10.058,10.058,0,0,1-2.09-.55l-1.51,1.56-1.74-1,.6-2.1a9.93,9.93,0,0,1-1.52-1.52l-2.1.6-1-1.74,1.56-1.51a9.9,9.9,0,0,1-.55-2.1L70,188v-2l2.12-.53a9.9,9.9,0,0,1,.55-2.09l-1.56-1.51,1-1.74,2.1.6a9.93,9.93,0,0,1,1.52-1.52v-.01Zm2.15.94a8.036,8.036,0,0,0-2.74,2.74l-.14.25a7.959,7.959,0,0,0,0,7.74l.14.25a8.036,8.036,0,0,0,2.74,2.74l.25.14a7.959,7.959,0,0,0,7.74,0l.25-.14a8.036,8.036,0,0,0,2.74-2.74l.14-.25a7.959,7.959,0,0,0,0-7.74l-.14-.25a8.036,8.036,0,0,0-2.74-2.74l-.25-.14a7.959,7.959,0,0,0-7.74,0ZM82,193a6,6,0,1,1,6-6A6,6,0,0,1,82,193Zm0-2a4,4,0,1,0-4-4A4,4,0,0,0,82,191Zm278,3.18-3.8,5.6-7.18-3.51,2.6-8.07a32.132,32.132,0,0,1-3.07-2.46l-7.27,4.35-5.04-6.22,5.82-6.26a30.861,30.861,0,0,1-1.7-3.52l-8.45.73-1.8-7.8,7.95-3.07a32.529,32.529,0,0,1,0-3.9l-7.95-3.07,1.8-7.8,8.45.73a31.664,31.664,0,0,1,1.7-3.52l-5.82-6.26,5.04-6.22,7.27,4.35a33.061,33.061,0,0,1,3.07-2.46l-2.6-8.07,7.19-3.5,3.79,5.59v64.36Zm0-3.53v-57.3l-4.46-6.58-4.1,2,2.53,7.87a30.2,30.2,0,0,0-5.13,4.1l-7.08-4.24-2.88,3.55,5.65,6.09a29.908,29.908,0,0,0-2.82,5.86l-8.24-.7-1.03,4.46,7.73,2.99a30.309,30.309,0,0,0,0,6.5l-7.73,3,1.03,4.45,8.24-.7a29.908,29.908,0,0,0,2.82,5.86l-5.65,6.1,2.88,3.54,7.08-4.23a30.143,30.143,0,0,0,5.13,4.09l-2.54,7.86,4.11,2,4.46-6.57Zm0-51.57v5.71l-3.56-3.8A24.911,24.911,0,0,1,360,139.08Zm0,22.68-14.17,6.64a25.032,25.032,0,0,1,8.38-25.78l5.79,10.5Zm0,23.16a25.081,25.081,0,0,1-13.32-13.9L360,168.47Zm0-43.64-.39.2.39.4v-.6Zm0,18.29v-2.35l-6.3-11.44a22.932,22.932,0,0,0-6.43,19.76L360,159.57Zm0,23.15V170.49l-10.47,2.01A23.1,23.1,0,0,0,360,182.72ZM0,129.82l1,1.46a31.872,31.872,0,0,1,3.8-.86L6,122h8l1.2,8.42a31.311,31.311,0,0,1,3.8.86l4.8-7.06,7.18,3.51-2.6,8.07a33.061,33.061,0,0,1,3.07,2.46l7.27-4.35,5.04,6.22-5.82,6.26a30.861,30.861,0,0,1,1.7,3.52l8.45-.73,1.8,7.8-7.95,3.07a31.718,31.718,0,0,1,0,3.9l7.95,3.07-1.8,7.8-8.45-.73a33.523,33.523,0,0,1-1.7,3.52l5.82,6.26-5.04,6.22-7.27-4.35a33.061,33.061,0,0,1-3.07,2.46l2.6,8.07-7.19,3.5-4.78-7.05a32.189,32.189,0,0,1-3.8.86L14,202H6l-1.2-8.42a31.872,31.872,0,0,1-3.8-.86l-1,1.46Zm0,3.53v57.3l.2-.29a29.067,29.067,0,0,0,6.34,1.44L7.71,200h4.58l1.17-8.2a29.748,29.748,0,0,0,6.35-1.44l4.65,6.87,4.1-2-2.53-7.87a30.2,30.2,0,0,0,5.13-4.1l7.08,4.24,2.88-3.55-5.65-6.09A29.57,29.57,0,0,0,38.29,172l8.24.7,1.03-4.46-7.73-2.99a30.7,30.7,0,0,0,0-6.5l7.73-3-1.03-4.45-8.24.7a29.908,29.908,0,0,0-2.82-5.86l5.65-6.1-2.88-3.54-7.08,4.23a30.143,30.143,0,0,0-5.13-4.09l2.54-7.86-4.11-2-4.65,6.86a29.856,29.856,0,0,0-6.35-1.44L12.29,124H7.7l-1.17,8.2a29.748,29.748,0,0,0-6.35,1.44l-.19-.29ZM34.17,168.4l-16.26-7.62a7.968,7.968,0,0,0-.8-2.44l8.68-15.72A24.949,24.949,0,0,1,34.17,168.4Zm-.85,2.63a25.01,25.01,0,0,1-21.94,15.93l2.23-17.82a8.293,8.293,0,0,0,2.07-1.5ZM0,139.08A25.023,25.023,0,0,1,23.56,141L11.28,154.1a8.082,8.082,0,0,0-2.56,0L0,144.8Zm0,22.68v-8.65l2.88,5.23a7.841,7.841,0,0,0-.79,2.44Zm0,23.16V168.47l4.32-.83a8.124,8.124,0,0,0,2.07,1.5l2.23,17.82A24.876,24.876,0,0,1,0,184.92ZM10,156a6,6,0,1,1-6,6A6,6,0,0,1,10,156Zm0,2a4,4,0,1,0,4,4A4,4,0,0,0,10,158ZM0,141.28v.6l9.48,10.13a9.02,9.02,0,0,1,1.04,0l9.87-10.54A23.079,23.079,0,0,0,0,141.28Zm0,18.29.34-.16c.09-.34.2-.67.32-.99L0,157.22Zm0,23.15a22.982,22.982,0,0,0,6.34,1.99l-1.8-14.33q-.428-.282-.83-.6l-3.71.7Zm13.66,1.99a23.033,23.033,0,0,0,16.8-12.21l-14.17-2.72a9.863,9.863,0,0,1-.84.6Zm19.07-19.17a22.93,22.93,0,0,0-6.42-19.75l-6.97,12.63c.12.32.23.65.32.99l13.07,6.13ZM137.54,360l-4.07-5.7,2.83-2.83,6.73,4.8c.7-.56,1.4-1.11,2.14-1.63l-2.9-7.75,3.46-2,5.25,6.38c.82-.37,1.65-.72,2.5-1.03l-.8-8.22,3.86-1.04,3.43,7.52c.88-.15,1.77-.26,2.67-.35L164,340h4l1.36,8.15c.9.09,1.8.2,2.67.35l3.43-7.52,3.86,1.04-.8,8.22c.85.31,1.68.66,2.5,1.03l5.25-6.38,3.46,2-2.9,7.75c.74.52,1.45,1.07,2.14,1.64l6.73-4.8,2.83,2.82-4.07,5.7Zm2.43,0h52.06l3.9-5.46-.47-.47-6.63,4.73a34.146,34.146,0,0,0-4.4-3.38l2.86-7.63-.58-.33-5.18,6.29a33.835,33.835,0,0,0-5.12-2.13l.78-8.1-.64-.18-3.37,7.42a34.07,34.07,0,0,0-5.5-.72L166.33,342h-.66l-1.34,8.04a34.181,34.181,0,0,0-5.5.72l-3.38-7.42-.64.18.78,8.1a33.878,33.878,0,0,0-5.12,2.13l-5.18-6.29-.58.33,2.86,7.63a33.584,33.584,0,0,0-4.4,3.38l-6.63-4.73-.47.47Zm9.75,0A28.82,28.82,0,0,1,163,355.15V360Zm32.56,0H169v-4.85A28.7,28.7,0,0,1,182.28,360Zm-28.66,0H161v-2.54a26.807,26.807,0,0,0-7.38,2.54Zm24.76,0a26.807,26.807,0,0,0-7.38-2.54V360ZM358.79,0h-1.21l1.5,3.28a48.288,48.288,0,0,0-5.8,5.8l-9.38-4.3-1.65,2.26,7,7.58a47.838,47.838,0,0,0-3.74,7.33l-10.24-1.2-.86,2.66,8.99,5.05a47.941,47.941,0,0,0-1.28,8.12L332,38.6v2.8l10.12,2.02a48.068,48.068,0,0,0,1.28,8.12l-9,5.05.87,2.66,10.24-1.2a49.087,49.087,0,0,0,3.74,7.33l-7,7.58,1.65,2.26,9.38-4.3a48.288,48.288,0,0,0,5.8,5.8l-4.3,9.38,2.26,1.65L360,85.02v2.66l-2.84,2.62-4.85-3.52,4.36-9.5a50.074,50.074,0,0,1-3.95-3.95l-9.5,4.36-3.52-4.85,7.08-7.68a49.917,49.917,0,0,1-2.54-4.98l-10.38,1.21-1.85-5.7,9.11-5.12a49.933,49.933,0,0,1-.87-5.52L330,43V37l10.25-2.05a49.971,49.971,0,0,1,.87-5.52l-9.11-5.12,1.85-5.7,10.38,1.21a48.563,48.563,0,0,1,2.54-4.98L339.7,7.16l3.52-4.85,9.5,4.36a50.244,50.244,0,0,1,3.95-3.95L355.42,0ZM360,52.7l-6.48,3.74a40.151,40.151,0,0,1,0-32.88L360,27.3Zm0-39.16v4.52l-2.47-1.43C358.3,15.56,359.13,14.53,360,13.54Zm0,52.92a39.021,39.021,0,0,1-2.47-3.1L360,61.94Zm0-16.07V29.61l-5.5-3.18a37.913,37.913,0,0,0,0,27.14ZM62.42,360h2.16l3.11-6.78-4.85-3.52-7.68,7.08a49.917,49.917,0,0,0-4.98-2.54l1.21-10.38-5.7-1.85-5.12,9.11a49.933,49.933,0,0,0-5.52-.87L33,340H27l-2.05,10.25a51.509,51.509,0,0,0-5.52.87l-5.12-9.11-5.7,1.85,1.21,10.38a48.563,48.563,0,0,0-4.98,2.54L0,352.32v2.67l4.62,4.26a47.838,47.838,0,0,1,7.33-3.74l-1.2-10.24,2.66-.86,5.05,8.99a47.941,47.941,0,0,1,8.12-1.28L28.6,342h2.8l2.02,10.12a48.068,48.068,0,0,1,8.12,1.28l5.05-9,2.66.87-1.2,10.24a49.087,49.087,0,0,1,7.33,3.74l7.58-7,2.26,1.65-2.8,6.1ZM360,244.51l-1.44-.2-.8,1.38,2,2.54.24.17Zm0,14.45-4-.4-3.16.66-.28,1.58,2.75,1.7,4.69,1.2v-4.74Zm0,13.33-4.7,1.2-2.74,1.71.28,1.58,3.16.66,4-.4Zm0,15.31-.24.17-2,2.54.8,1.38,1.44-.2Zm0,5.76-2.57.37-2-3.46,3.33-4.23,1.24-.85v8.17Zm0-14.31-3.65.36-5.27-1.1-.7-3.94,4.58-2.84,5.04-1.3Zm0-13.28-5.04-1.3-4.58-2.84.7-3.93,5.27-1.1,3.65.35v8.82Zm0-14.96-1.24-.85-3.33-4.23,2-3.46,2.57.37v8.17Zm0,101.5V360h-4.58l-3.11-6.78,4.85-3.52,2.84,2.62v-.01Zm0,2.67-2.96-2.73-2.26,1.65,2.8,6.1H360Z" transform="translate(0.01)"/></svg>