<svg id="Layer_1" data-name="Layer 1" xmlns="http://www.w3.org/2000/svg" viewBox="0 0 173.605 172.908"><title>navbrand</title><g id="grid"><rect x="88.532" y="88.532" width="84.316" height="84.316" rx="3" style="fill:gray"/><rect width="84.316" height="84.316" rx="3" style="fill:#4b4b4b"/><rect y="88.592" width="84.316" height="84.316" rx="3" style="fill:tomato"/><rect x="88.532" width="84.316" height="84.316" rx="3" style="fill:#1e90ff"/></g><g id="pumpkin"><path id="mouth" d="M910.27,275.4a16.79,16.79,0,0,1-7.915,11.633l0-.028-.2-1.369a1.881,1.881,0,0,0-1.9-1.615c-.035,0-.07,0-.1,0s-.092.007-.138.014l-7.481,1.087a1.885,1.885,0,0,0-1.6,2.141l.427,2.913h-.049c-.191,0-.381-.007-.572-.014a20.407,20.407,0,0,1-4.253-.617l.959-1.789a1.883,1.883,0,0,0-.769-2.557l-6.659-3.583a1.788,1.788,0,0,0-.829-.223,1.349,1.349,0,0,0-.2,0,2.046,2.046,0,0,0-.406.074,1.912,1.912,0,0,0-1.125.914l-.705,1.312c-.011-.011-.021-.025-.032-.035a15.961,15.961,0,0,1-3.89-8.261Z" transform="translate(-760.857 -129.25)" style="fill:#fafad2"/><path id="face" d="M902.89,233.473a27.124,27.124,0,0,0-3.94.325,16.974,16.974,0,0,0-16.856-15.446,1.893,1.893,0,0,0-1.891,1.887V227.8a1.893,1.893,0,0,0,1.891,1.89,5.67,5.67,0,0,1,5.594,4.878,26.854,26.854,0,0,0-7.485-1.1c-16.676,0-30.245,15.266-30.245,34.027s13.569,34.026,30.245,34.026H902.89c16.676,0,30.245-15.265,30.245-34.026S919.566,233.473,902.89,233.473ZM871.4,253.345a3.982,3.982,0,1,1,3.982,3.982A3.982,3.982,0,0,1,871.4,253.345Zm31.025,33.692,0-.028a.283.283,0,0,0-.046.028l-.2-1.4a1.88,1.88,0,0,0-1.855-1.615c-.036,0-.071,0-.1,0s-.091.007-.137.014l-7.481,1.087a1.884,1.884,0,0,0-1.6,2.141l.427,2.913h-.05c-.19,0-.381-.007-.571-.014a20.377,20.377,0,0,1-4.3-.617l.959-1.789a1.883,1.883,0,0,0-.769-2.557l-6.659-3.583a1.846,1.846,0,0,0-.78-.223,1.349,1.349,0,0,0-.2,0,2.036,2.036,0,0,0-.405.074,1.911,1.911,0,0,0-1.126.914l-.705,1.312c-.011-.011-.021-.025-.032-.035l-.017.035a15.993,15.993,0,0,1-3.923-8.3h37.5A16.793,16.793,0,0,1,902.421,287.037Zm7.255-29.71a3.984,3.984,0,1,1,3.982-3.982A3.983,3.983,0,0,1,909.676,257.327Z" transform="translate(-760.857 -129.25)" style="fill:#ff7518"/><g id="eyes"><path d="M879.36,253.345a3.982,3.982,0,1,1-3.982-3.985A3.98,3.98,0,0,1,879.36,253.345Z" transform="translate(-760.857 -129.25)" style="fill:#212121"/><path d="M913.658,253.345a3.984,3.984,0,1,1-3.982-3.985A3.982,3.982,0,0,1,913.658,253.345Z" transform="translate(-760.857 -129.25)" style="fill:#212121"/></g><g id="specs"><path d="M861.869,244.125a6.373,6.373,0,0,1,1.962-.385c1.522-.095,3-.312,4.511-.469a62.574,62.574,0,0,1,12.206-.32,15.781,15.781,0,0,1,4.686,1.012,6.038,6.038,0,0,1,3.345,5.674,17.864,17.864,0,0,1-1.045,5.618,8.793,8.793,0,0,1-4.072,5.281,15.671,15.671,0,0,1-6.189,1.433c-1.12.072-2.243.082-3.365.053-4.866-.337-9.428-.438-11.739-3.941a13.436,13.436,0,0,1-1.6-4.426,17.844,17.844,0,0,1-.8-6.571,3.829,3.829,0,0,1,1.211-2.432A3.25,3.25,0,0,1,861.869,244.125Z" transform="translate(-760.857 -129.25)" style="fill:orange;opacity:0.5"/><path d="M919.569,241.4a6.344,6.344,0,0,0-1.989-.2c-1.524.048-3.013-.029-4.535-.041a62.57,62.57,0,0,0-12.183.833,15.808,15.808,0,0,0-4.569,1.449A6.038,6.038,0,0,0,893.5,249.4a17.826,17.826,0,0,0,1.571,5.494,8.787,8.787,0,0,0,4.552,4.873,15.651,15.651,0,0,0,6.3.843c1.122-.034,2.241-.131,3.355-.265,4.146-.685,9.089-.842,11.315-5.032a13.414,13.414,0,0,0,1.172-4.557,17.847,17.847,0,0,0,.181-6.618,3.831,3.831,0,0,0-1.435-2.307A3.266,3.266,0,0,0,919.569,241.4Z" transform="translate(-760.857 -129.25)" style="fill:orange;opacity:0.5"/><line x1="127.647" y1="119.614" x2="132.602" y2="119.379" style="fill:none;stroke:#212121;stroke-linecap:round;stroke-linejoin:round;stroke-width:3px"/><line x1="127.602" y1="122.206" x2="132.819" y2="121.42" style="fill:none;stroke:#212121;stroke-linecap:round;stroke-linejoin:round;stroke-width:3px"/><path d="M860.738,254.331c.746,4.352.216,9.675-.482,13.987-.84,5.185-3.854,12.177-5.488,13.976-1.464,1.777-3.054-1.612-3.21-3.516" transform="translate(-760.857 -129.25)" style="fill:none;stroke:#212121;stroke-linecap:round;stroke-linejoin:round;stroke-width:3px"/><path d="M921.76,250.76a40.837,40.837,0,0,0,1.717,11.813c4.09,11.767,8.868,12.127,9.485,8.592" transform="translate(-760.857 -129.25)" style="fill:none;stroke:#212121;stroke-linecap:round;stroke-linejoin:round;stroke-width:3px"/><path d="M859.915,246.385a7.137,7.137,0,0,0-1.409-.038,2.822,2.822,0,0,0-1.195.208,1.616,1.616,0,0,0-.684,1.229,1.54,1.54,0,0,0,.972,1.357,3.545,3.545,0,0,0,2.118.114" transform="translate(-760.857 -129.25)" style="fill:none;stroke:#212121;stroke-linecap:round;stroke-linejoin:round;stroke-width:3px"/><path d="M921.728,243.46a7.241,7.241,0,0,1,1.4-.171,2.846,2.846,0,0,1,1.21.095,1.615,1.615,0,0,1,.8,1.159,1.539,1.539,0,0,1-.84,1.443,3.539,3.539,0,0,1-2.1.313" transform="translate(-760.857 -129.25)" style="fill:none;stroke:#212121;stroke-linecap:round;stroke-linejoin:round;stroke-width:3px"/><path d="M861.869,244.125a6.373,6.373,0,0,1,1.962-.385c1.522-.095,3-.312,4.511-.469a62.574,62.574,0,0,1,12.206-.32,15.781,15.781,0,0,1,4.686,1.012,6.038,6.038,0,0,1,3.345,5.674,17.864,17.864,0,0,1-1.045,5.618,8.793,8.793,0,0,1-4.072,5.281,15.671,15.671,0,0,1-6.189,1.433c-1.12.072-2.243.082-3.365.053-4.866-.337-9.428-.438-11.739-3.941a13.436,13.436,0,0,1-1.6-4.426,17.844,17.844,0,0,1-.8-6.571,3.829,3.829,0,0,1,1.211-2.432A3.25,3.25,0,0,1,861.869,244.125Z" transform="translate(-760.857 -129.25)" style="fill:none;stroke:#212121;stroke-linecap:round;stroke-linejoin:round;stroke-width:3px"/><path d="M919.569,241.4a6.344,6.344,0,0,0-1.989-.2c-1.524.048-3.013-.029-4.535-.041a62.57,62.57,0,0,0-12.183.833,15.808,15.808,0,0,0-4.569,1.449A6.038,6.038,0,0,0,893.5,249.4a17.826,17.826,0,0,0,1.571,5.494,8.787,8.787,0,0,0,4.552,4.873,15.651,15.651,0,0,0,6.3.843c1.122-.034,2.241-.131,3.355-.265,4.146-.685,9.089-.842,11.315-5.032a13.414,13.414,0,0,0,1.172-4.557,17.847,17.847,0,0,0,.181-6.618,3.831,3.831,0,0,0-1.435-2.307A3.266,3.266,0,0,0,919.569,241.4Z" transform="translate(-760.857 -129.25)" style="fill:none;stroke:#212121;stroke-linecap:round;stroke-linejoin:round;stroke-width:3px"/></g></g></svg>