<svg id="Layer_1" data-name="Layer 1" xmlns="http://www.w3.org/2000/svg" viewBox="0 0 451.704 100.302"><title>pqSudoku</title><path d="M293.525,247.1a22.551,22.551,0,0,1-10.4-3.7l-1.1,12.8a10.837,10.837,0,0,1-3.35,7.25,8.938,8.938,0,0,1-7.25,2.351,8.724,8.724,0,0,1-6.65-3.55,10.837,10.837,0,0,1-2.05-7.75l5.2-59.3a10.83,10.83,0,0,1,3.35-7.25,9.231,9.231,0,0,1,7.25-2.449,9.012,9.012,0,0,1,7.5,4.6,18.976,18.976,0,0,1,13.3-3.3,22.75,22.75,0,0,1,17.6,10.2q5.5,8.1,5.5,19.4a32.766,32.766,0,0,1-7.8,21.9Q306.125,248.2,293.525,247.1Zm1.9-42.4a7.454,7.454,0,0,0-6.75,2.7,13.93,13.93,0,0,0-3.05,8.2,15.454,15.454,0,0,0,1.55,9,7.4,7.4,0,0,0,12.65,1.2,15.038,15.038,0,0,0,3.2-8.2,15.293,15.293,0,0,0-1.7-8.8A7.189,7.189,0,0,0,295.425,204.7Z" transform="translate(-262.67 -165.553)" style="fill:#d3d3d3"/><path d="M380.724,259.4a10.725,10.725,0,0,1-3.2.5q-6.9,0-9.4-7.3l-4.2-12.1a22.245,22.245,0,0,1-17.1,7.4,25.192,25.192,0,0,1-16.4-6.2,31.644,31.644,0,0,1-10.1-14.6,38.6,38.6,0,0,1-2.2-12.8,28.638,28.638,0,0,1,3.8-14.9,23.114,23.114,0,0,1,12.6-10,22.022,22.022,0,0,1,7.2-1.2,16.436,16.436,0,0,1,6.6,1.3,10.262,10.262,0,0,1,9.4-6.9q6.8,0,9.4,7.3l19.4,56.4a12.049,12.049,0,0,1,.7,4Q387.224,257.2,380.724,259.4Zm-38-53.6q-5.2,1.8-5.2,8.9a16.266,16.266,0,0,0,1,5.5,14.969,14.969,0,0,0,4,6.4,8.409,8.409,0,0,0,5.8,2.5,6.649,6.649,0,0,0,2.3-.4q5.3-1.8,5.3-8.7a17.912,17.912,0,0,0-1.1-6q-2.9-8.6-9.5-8.6A8.817,8.817,0,0,0,342.724,205.8Z" transform="translate(-262.67 -165.553)" style="fill:#d3d3d3"/><path d="M409.123,247a46.719,46.719,0,0,1-16.6-2.9q-10.2-3.8-10.2-10.8a9.785,9.785,0,0,1,2.55-6.75,8.5,8.5,0,0,1,6.65-2.851,27.219,27.219,0,0,1,8.35,1.951,27.329,27.329,0,0,0,8.45,1.949q7.7,0,7.7-6.1,0-3-8.7-5.5-11.7-3.3-16-6.1-8.7-5.6-8.7-16.3a23.188,23.188,0,0,1,8.3-18.5,28.166,28.166,0,0,1,19-6.7,35.288,35.288,0,0,1,13.5,2.8q8.6,3.7,8.6,9.7a10.471,10.471,0,0,1-2.5,6.9,8.275,8.275,0,0,1-6.7,3,21.955,21.955,0,0,1-6.6-1.5,22.049,22.049,0,0,0-6.7-1.5q-5.7,0-5.7,4,0,2.1,8.7,4.6,11,3.1,16,6.8,8.7,6.4,8.7,18.1a23.753,23.753,0,0,1-8.5,18.9Q420.72,247,409.123,247Z" transform="translate(-262.67 -165.553)" style="fill:#d3d3d3"/><path d="M464.023,247q-12.2.6-19.55-5.35t-7.85-16.75l-1.4-26a10.95,10.95,0,0,1,2.35-7.65,8.93,8.93,0,0,1,6.85-3.35,9.086,9.086,0,0,1,7.1,2.65,10.554,10.554,0,0,1,3.1,7.35l1.3,25.6a6.568,6.568,0,0,0,2.25,4.9,7.222,7.222,0,0,0,9.65-.5,6.3,6.3,0,0,0,1.7-5.1l-1.3-25.6a10.584,10.584,0,0,1,2.25-7.649,8.931,8.931,0,0,1,6.85-3.351,9.15,9.15,0,0,1,7.15,2.6,10.594,10.594,0,0,1,3.05,7.4l1.4,25.9q.6,10.9-6.05,17.551T464.023,247Z" transform="translate(-262.67 -165.553)" style="fill:#d3d3d3"/><path d="M533.522,247.9q-5.3-.5-7.6-4.6a18.486,18.486,0,0,1-12.8,3.4,23.593,23.593,0,0,1-17.5-9.9,30.778,30.778,0,0,1-6.2-19.1,34.872,34.872,0,0,1,6.8-21.3q7.5-10.2,19.3-10.2a24.042,24.042,0,0,1,13.3,3.8l1.3-14.8a10.829,10.829,0,0,1,3.349-7.25,8.942,8.942,0,0,1,7.25-2.35,8.73,8.73,0,0,1,6.651,3.551,10.836,10.836,0,0,1,2.05,7.75l-5.4,61.3a10.836,10.836,0,0,1-3.349,7.25A9.1,9.1,0,0,1,533.522,247.9Zm-14.8-43.3a7.4,7.4,0,0,0-6.6,3.051,15.423,15.423,0,0,0-3.2,8.35,14.177,14.177,0,0,0,1.7,8.5,7.433,7.433,0,0,0,12.7,1.2,15.515,15.515,0,0,0,3.1-8.7,13.528,13.528,0,0,0-1.6-8.5A7.672,7.672,0,0,0,518.722,204.6Z" transform="translate(-262.67 -165.553)" style="fill:#d3d3d3"/><path d="M577.923,247a26.449,26.449,0,0,1-21-8,32.318,32.318,0,0,1-2.1-42.2,26.964,26.964,0,0,1,40.8-2.1,30.853,30.853,0,0,1,9,20.6q.6,12.5-6.6,21.5A26.5,26.5,0,0,1,577.923,247Zm-2.2-42.4a7.545,7.545,0,0,0-6.349,3.85,14.855,14.855,0,0,0-1.95,8.851,14.7,14.7,0,0,0,2.9,8.35,7.782,7.782,0,0,0,12.949-.65,14.426,14.426,0,0,0,1.95-8.7,15.329,15.329,0,0,0-2.849-8.5A7.449,7.449,0,0,0,575.722,204.6Z" transform="translate(-262.67 -165.553)" style="fill:#d3d3d3"/><path d="M629.423,225.6a97.492,97.492,0,0,1,4.3,10.6,10.965,10.965,0,0,1,.8,4.1q0,6.7-6.6,9a9.085,9.085,0,0,1-3.2.6q-6.9,0-9.4-7.4l-20-58.2a12.054,12.054,0,0,1-.7-4q0-6.9,6.4-9.1a9.345,9.345,0,0,1,3.3-.6q6.8,0,9.3,7.4l9,26.2,7.3-14.4q3.4-6.7,9.2-6.7a8.443,8.443,0,0,1,6.35,2.8,9.171,9.171,0,0,1,2.65,6.5,10.212,10.212,0,0,1-1.6,5.2l-7.1,12.8,20.3,12a9.036,9.036,0,0,1,4.8,8.3q0,6.6-6.2,8.8a10.148,10.148,0,0,1-2.8.4q-3.1,0-7.3-2.6Z" transform="translate(-262.67 -165.553)" style="fill:#d3d3d3"/><path d="M689.424,247q-12.2.6-19.55-5.35t-7.851-16.75l-1.4-26a10.944,10.944,0,0,1,2.349-7.65,8.934,8.934,0,0,1,6.851-3.35,9.087,9.087,0,0,1,7.1,2.65,10.557,10.557,0,0,1,3.1,7.35l1.3,25.6a6.568,6.568,0,0,0,2.25,4.9,7.221,7.221,0,0,0,9.649-.5,6.3,6.3,0,0,0,1.7-5.1l-1.3-25.6a10.584,10.584,0,0,1,2.25-7.649,8.929,8.929,0,0,1,6.849-3.351,9.152,9.152,0,0,1,7.151,2.6,10.6,10.6,0,0,1,3.05,7.4l1.4,25.9q.6,10.9-6.051,17.551T689.424,247Z" transform="translate(-262.67 -165.553)" style="fill:#d3d3d3"/></svg>